<svg xmlns="http://www.w3.org/2000/svg" viewBox="0 0 52.01 16.28"><defs><style>.cls-1,.cls-2{fill:#b7bcd0;}.cls-2{font-size:14px;font-family:Roboto-Regular, Roboto;}.cls-3{letter-spacing:-0.01em;}.cls-4{letter-spacing:-0.02em;}</style></defs><g id="Layer_2" data-name="Layer 2"><g id="Layer_1-2" data-name="Layer 1"><path class="cls-1" d="M10.41,8.93l.83-.83a.21.21,0,0,1,.36.15V12a1.25,1.25,0,0,1-1.24,1.25H1.24A1.25,1.25,0,0,1,0,12V2.9A1.25,1.25,0,0,1,1.24,1.66H8.32A.2.2,0,0,1,8.47,2l-.83.83a.2.2,0,0,1-.15.06H1.24V12h9.12V9.08A.25.25,0,0,1,10.41,8.93Zm4.06-5.22L7.67,10.5l-2.34.26A1.06,1.06,0,0,1,4.15,9.58l.26-2.34,6.8-6.8a1.51,1.51,0,0,1,2.14,0l1.12,1.12a1.53,1.53,0,0,1,0,2.15Zm-2.56.8L10.41,3,5.6,7.81l-.19,1.7L7.1,9.32Zm1.68-2.07L12.47,1.32a.28.28,0,0,0-.38,0l-.8.8,1.5,1.51.8-.8A.29.29,0,0,0,13.59,2.44Z"/><text class="cls-2" transform="translate(16.37 12.49)">ED<tspan class="cls-3" x="17.14" y="0">I</tspan><tspan class="cls-4" x="20.75" y="0">T</tspan></text></g></g></svg>