<svg xmlns="http://www.w3.org/2000/svg" viewBox="0 0 31.65 28.14"><defs><style>.cls-1{fill:#b7bcd0;}</style></defs><g id="Layer_2" data-name="Layer 2"><g id="Layer_1-2" data-name="Layer 1"><path class="cls-1" d="M22.11,19l1.76-1.76a.44.44,0,0,1,.75.31v8A2.64,2.64,0,0,1,22,28.14H2.64A2.64,2.64,0,0,1,0,25.5V6.16A2.64,2.64,0,0,1,2.64,3.52h15a.44.44,0,0,1,.31.75L16.22,6a.4.4,0,0,1-.31.13H2.64V25.5H22V19.27A.44.44,0,0,1,22.11,19Zm8.6-11.09L16.28,22.3l-5,.55a2.28,2.28,0,0,1-2.51-2.51l.55-5L23.79.94a3.22,3.22,0,0,1,4.54,0l2.38,2.38a3.21,3.21,0,0,1,0,4.55Zm-5.43,1.7-3.19-3.2L11.88,16.59l-.4,3.59,3.59-.4Zm3.57-4.38L26.47,2.81a.58.58,0,0,0-.81,0L24,4.51,27.15,7.7,28.85,6A.59.59,0,0,0,28.85,5.19Z"/></g></g></svg>