<svg xmlns="http://www.w3.org/2000/svg" viewBox="0 0 128.53 128.53"><defs><style>.cls-1{fill:#6ce579;}.cls-2{fill:#fefefe;}</style></defs><g id="Layer_2" data-name="Layer 2"><g id="Layer_1-2" data-name="Layer 1"><circle class="cls-1" cx="64.27" cy="64.27" r="64.27"/><path class="cls-2" d="M28.19,70c-.17-.59.26-1.12.81-1.66,3-3,6-5.93,8.92-8.94.52-.53.75-.44,1.23,0,4.41,4.46,8.86,8.89,13.28,13.35.44.44.65.4,1.07,0q18.91-19,37.84-37.92c.48-.48.73-.53,1.23,0,3.05,3.11,6.15,6.17,9.22,9.26a2.63,2.63,0,0,1,0,3.1Q77.62,71.44,53.43,95.67c-.39.39-.59.38-1,0q-11.9-12-23.84-23.85C28.13,71.33,28.27,70.81,28.19,70Z"/></g></g></svg>