<svg xmlns="http://www.w3.org/2000/svg" viewBox="0 0 17.48 21.04"><defs><style>.cls-1,.cls-2{fill:none;stroke:#fff;stroke-miterlimit:10;stroke-width:0.85px;}.cls-2{stroke-linecap:round;}</style></defs><g id="Layer_2" data-name="Layer 2"><g id="Layer_2-2" data-name="Layer 2"><path class="cls-1" d="M13.56,1.55H16a1,1,0,0,1,1.1,1V19.64a1,1,0,0,1-1.1,1H1.52a1,1,0,0,1-1.09-1V2.52a1,1,0,0,1,1.09-1h2.4"/><rect class="cls-1" x="4.18" y="0.43" width="9.21" height="3.64" rx="1"/><line class="cls-2" x1="11.48" y1="7.36" x2="12.56" y2="8.8"/><line class="cls-2" x1="13.99" y1="5.93" x2="12.56" y2="8.8"/><line class="cls-2" x1="3.57" y1="7.56" x2="8.73" y2="7.56"/><line class="cls-2" x1="11.48" y1="12.15" x2="12.56" y2="13.59"/><line class="cls-2" x1="13.99" y1="10.72" x2="12.56" y2="13.59"/><line class="cls-2" x1="3.57" y1="12.35" x2="8.73" y2="12.35"/><line class="cls-2" x1="11.48" y1="16.94" x2="12.56" y2="18.38"/><line class="cls-2" x1="13.99" y1="15.51" x2="12.56" y2="18.38"/><line class="cls-2" x1="3.57" y1="17.14" x2="8.73" y2="17.14"/></g></g></svg>