<svg xmlns="http://www.w3.org/2000/svg" viewBox="0 0 24.14 25.08"><defs><style>.cls-1{fill:#fff;}.cls-2,.cls-3,.cls-4,.cls-5{fill:none;stroke:#fff;stroke-linecap:round;}.cls-2,.cls-3,.cls-5{stroke-miterlimit:10;}.cls-2,.cls-4{stroke-width:0.94px;}.cls-3{stroke-width:0.37px;}.cls-4{stroke-linejoin:round;}.cls-5{stroke-width:0.85px;}</style></defs><g id="Layer_2" data-name="Layer 2"><g id="Layer_2-2" data-name="Layer 2"><path class="cls-1" d="M12,.51,23.15,6.29,12.11,12,1,6.25,12,.51M12,0,0,6.25l12.11,6.29,12-6.25L12,0Z"/><path class="cls-1" d="M.45,7l11.12,5.78V24.34L.45,18.56V7M0,6.25V18.83l12,6.25V12.5L0,6.25Z"/><path class="cls-1" d="M23.68,7V18.49l-11.2,5.82V12.84L23.68,7m.46-.75L12,12.56v12.5l12.11-6.29V6.27Z"/><line class="cls-2" x1="4.83" y1="4.36" x2="15.9" y2="10.55"/><line class="cls-3" x1="6.82" y1="3.1" x2="18.08" y2="9.39"/><line class="cls-4" x1="9.58" y1="1.92" x2="20.46" y2="8"/><line class="cls-5" x1="15.76" y1="10.41" x2="15.76" y2="14.17"/><line class="cls-5" x1="20.44" y1="8.12" x2="20.44" y2="12.39"/><line class="cls-5" x1="15.9" y1="14.33" x2="17.19" y2="14.83"/><line class="cls-5" x1="17.23" y1="14.83" x2="18.41" y2="13.1"/><line class="cls-5" x1="18.41" y1="13.1" x2="19.74" y2="13.66"/><line class="cls-5" x1="19.74" y1="13.66" x2="20.44" y2="12.54"/></g></g></svg>