<svg xmlns="http://www.w3.org/2000/svg" viewBox="0 0 18.53 15.93"><defs><style>.cls-1{fill:#fff;}.cls-2,.cls-3{fill:none;stroke:#fff;stroke-linecap:round;stroke-miterlimit:10;}.cls-2{stroke-width:0.88px;}</style></defs><g id="Layer_2" data-name="Layer 2"><g id="Layer_2-2" data-name="Layer 2"><g id="Shopping_Cart" data-name="Shopping Cart"><path class="cls-1" d="M5.42,12.86A1.54,1.54,0,1,0,7,14.39,1.53,1.53,0,0,0,5.42,12.86Z"/><path class="cls-1" d="M15.17,12.86a1.54,1.54,0,1,0,1.54,1.53A1.53,1.53,0,0,0,15.17,12.86Z"/><line class="cls-2" x1="3.16" y1="1.02" x2="3.16" y2="12.13"/><line class="cls-3" x1="18.03" y1="12.13" x2="3.16" y2="12.13"/><line class="cls-2" x1="3.16" y1="1.02" x2="0.44" y2="0.44"/><line class="cls-2" x1="3.16" y1="2.66" x2="16.55" y2="2.66"/><line class="cls-2" x1="16.55" y1="7.71" x2="16.55" y2="2.66"/><line class="cls-2" x1="3.16" y1="9.92" x2="16.55" y2="7.71"/><line class="cls-2" x1="6.27" y1="2.66" x2="6.27" y2="9.4"/><line class="cls-2" x1="9.91" y1="2.66" x2="9.91" y2="8.42"/><line class="cls-2" x1="13.78" y1="2.66" x2="13.78" y2="7.71"/></g></g></g></svg>