<svg xmlns="http://www.w3.org/2000/svg" viewBox="0 0 29.42 25.08"><defs><style>.cls-1{fill:#fff;}.cls-2,.cls-3,.cls-4,.cls-5{fill:none;stroke:#fff;stroke-linecap:round;}.cls-2,.cls-3,.cls-5{stroke-miterlimit:10;}.cls-2,.cls-4{stroke-width:0.94px;}.cls-3{stroke-width:0.37px;}.cls-4{stroke-linejoin:round;}.cls-5{stroke-width:0.85px;}</style></defs><g id="Layer_2" data-name="Layer 2"><g id="Layer_2-2" data-name="Layer 2"><path class="cls-1" d="M17.31.51,28.44,6.29,17.4,12,6.27,6.25l11-5.74m0-.51-12,6.25L17.4,12.54l12-6.25L17.31,0Z"/><path class="cls-1" d="M5.74,7l11.12,5.78V24.34L5.74,18.56V7m-.45-.74V18.83l12,6.25V12.5l-12-6.25Z"/><path class="cls-1" d="M29,7V18.49l-11.2,5.82V12.84L29,7m.45-.75L17.31,12.56v12.5l12.11-6.29V6.27Z"/><line class="cls-2" x1="10.11" y1="4.36" x2="21.19" y2="10.55"/><line class="cls-3" x1="12.1" y1="3.1" x2="23.37" y2="9.39"/><line class="cls-4" x1="14.87" y1="1.92" x2="25.75" y2="8"/><line class="cls-5" x1="21.04" y1="10.41" x2="21.04" y2="14.17"/><line class="cls-5" x1="25.73" y1="8.12" x2="25.73" y2="12.39"/><line class="cls-5" x1="21.18" y1="14.33" x2="22.48" y2="14.83"/><line class="cls-5" x1="22.51" y1="14.83" x2="23.7" y2="13.1"/><line class="cls-5" x1="23.7" y1="13.1" x2="25.02" y2="13.66"/><line class="cls-5" x1="25.02" y1="13.66" x2="25.73" y2="12.54"/><polygon class="cls-1" points="10.58 12.99 6.5 10.63 2.25 12.65 3.23 8.04 0 4.62 4.68 4.13 6.94 0 8.85 4.3 13.48 5.17 9.97 8.32 10.58 12.99"/></g></g></svg>