<svg xmlns="http://www.w3.org/2000/svg" viewBox="0 0 28.81 26.19"><defs><style>.cls-1{fill:#fff;}</style></defs><g id="Layer_2" data-name="Layer 2"><g id="Layer_2-2" data-name="Layer 2"><path class="cls-1" d="M7.18,12l5.69,3L7.23,17.91,1.54,15,7.18,12m0-.8L0,15l7.23,3.76L14.4,15,7.18,11.22Z"/><path class="cls-1" d="M.71,16.12l5.76,3V25L.71,22V16.12M0,15v7.51l7.18,3.73V18.68L0,15Z"/><path class="cls-1" d="M13.69,16.13V22l-5.8,3V19.15l5.8-3M14.4,15,7.18,18.72v7.46l7.22-3.76V15Z"/><path class="cls-1" d="M21.58,12l5.69,3-5.64,2.93-5.69-3L21.58,12m0-.79L14.4,15l7.23,3.76L28.81,15l-7.23-3.75Z"/><path class="cls-1" d="M15.11,16.12l5.76,3V25l-5.76-3V16.12M14.4,15v7.51l7.18,3.73V18.68L14.4,15Z"/><path class="cls-1" d="M28.1,16.13V22l-5.81,3V19.15l5.81-3M28.81,15l-7.23,3.75v7.46l7.23-3.76V15Z"/><path class="cls-1" d="M14.38.8l5.69,3L14.43,6.69l-5.69-3L14.38.8m0-.8L7.2,3.73l7.23,3.75,7.18-3.72L14.38,0Z"/><path class="cls-1" d="M7.91,4.89l5.76,3V13.8l-5.76-3V4.89M7.2,3.73v7.51L14.38,15V7.46L7.2,3.73Z"/><path class="cls-1" d="M20.9,4.91v5.86l-5.81,3V7.93l5.81-3m.71-1.17L14.38,7.5V15l7.23-3.75V3.74Z"/></g></g></svg>