<svg id="Layer_1" data-name="Layer 1" xmlns="http://www.w3.org/2000/svg" viewBox="0 0 1393.44 364.09"><defs><style>.cls-1{fill:#323232;}</style></defs><path class="cls-1" d="M19.85,207.19c3,0,5.84-.06,8.63,0,17.64.42,35.36,0,52.9,1.54s25.64,10.18,27.34,27.6a76.87,76.87,0,0,1-1.66,23.7C104.91,269.74,98,275.64,88,277.49a25.67,25.67,0,0,0-2.88.69c-.26.08-.42.47-1.08,1.26a28.74,28.74,0,0,0,3.63,1c12,1.44,18.42,7,20.4,19a96.49,96.49,0,0,1-.58,36.75c-3,13.8-10,20.94-24,22.19-14.9,1.33-29.93,1.22-44.91,1.62-6.12.17-12.26,0-18.71,0ZM54.62,314.77h0c0,6.66-.14,13.32.11,20,.05,1.36,1.32,3.6,2.39,3.85,8.1,1.86,15.41-2.95,16.21-11.26A139.11,139.11,0,0,0,73.67,304c-.76-10.58-4.18-13.1-14.63-13.3-3.67-.07-4.56,1.32-4.47,4.65C54.75,301.79,54.62,308.28,54.62,314.77Zm0-45.79c14.57,1.56,18.54-1.57,19.41-15.13a79,79,0,0,0-.5-14.42,12.9,12.9,0,0,0-16.85-10.79,3.25,3.25,0,0,0-2,2.27C54.62,243.51,54.66,256.12,54.66,269Z"/><path class="cls-1" d="M182.49,305.85v-22H230.3c.1,1.48.29,3.07.29,4.66,0,22.16-.05,44.33.14,66.49,0,4-1.33,5.4-5.16,5a48,48,0,0,0-6,0c-5.34.13-11.32,1.34-10.8-7.83-13.61,11.57-28.59,12.24-44.15,9.44-10.06-1.82-17.27-7.91-19.82-17.61a117.84,117.84,0,0,1-3.71-27c-.51-22.32-.25-44.66-.11-67a85.29,85.29,0,0,1,1.39-14.88c3.06-16.38,13.13-26.12,29.3-29.46a71.45,71.45,0,0,1,33.65,1c12.87,3.51,21.38,11.87,23.74,25,1.71,9.56,1.65,19.44,2.42,29.6H195.63c0-3.19,0-6.43,0-9.67-.08-5,.13-10-.44-15-.67-5.8-4.37-8.6-9.88-8.36-5.18.23-8.3,3.3-9,8.89a25,25,0,0,0-.13,3q0,43.74,0,87.49c0,4.75.92,9.11,6.06,10.92,6.54,2.31,12.46-1.24,13-8.24a213.72,213.72,0,0,0,.25-21.48c0-1-1.81-2.64-2.94-2.78A84.37,84.37,0,0,0,182.49,305.85Z"/><path class="cls-1" d="M319.39,301.14h34.92c-.38,12.82,1.45,25.46-2.69,37.77-4.24,12.59-13.44,20-26,22.17a96.09,96.09,0,0,1-27.76.86c-19.82-2.5-31.77-14.67-32.67-36.07-1.23-28.91-1-58,.41-86.88.93-19.42,12.6-31.1,31.63-33.59a103.08,103.08,0,0,1,30.71.93c15,2.63,23.49,12.5,25.34,27.66,1.08,8.83,1,17.81,1.42,27.05H319.27c0-5.74.1-11.33,0-16.92a43.16,43.16,0,0,0-.9-9.39c-1.18-4.77-4.63-6.8-9.85-6.5-4.66.27-7.39,2.85-8.2,7.29a46.85,46.85,0,0,0-.68,8.45q-.08,39.48,0,79a56.07,56.07,0,0,0,.35,7c.75,6,3.93,9,9.28,9.1s9-2.77,9.61-8.76c.65-6.61.43-13.31.55-20C319.44,307.34,319.39,304.39,319.39,301.14Z"/><path class="cls-1" d="M850.68,231.52V339.16H837V261.62l-1.28-.31c-.81,1.71-1.65,3.39-2.42,5.11-10.24,22.94-20.54,45.85-30.61,68.86-1.43,3.28-3.16,4.33-6.64,4.31s-5.54-.7-7.12-4.31c-10.25-23.48-20.81-46.82-31.28-70.2a9.67,9.67,0,0,0-3-4.17v78.24H740.86V231.55c4.43,0,8.76-.33,13,.18,1.36.17,2.9,2.32,3.62,3.9q18,39.8,35.77,79.67c.68,1.51,1.4,3,2.54,5.39,1.08-2.2,1.87-3.68,2.55-5.21,11.76-26.27,23.6-52.5,35.15-78.86,1.73-4,3.74-5.75,8.09-5.18C844.46,231.82,847.45,231.52,850.68,231.52Z"/><path class="cls-1" d="M1113.93,292.24h-17.36c-6.83,0-13.67-.23-20.49.08-4.08.18-5.9-1-5.34-5.25a48.5,48.5,0,0,0,0-6.05h57.87c4.51,26-14.46,52.7-41.16,58.22-29.78,6.16-57.72-11.17-64.66-40.1-7.28-30.31,8.86-59.58,37.25-67.55,27.51-7.73,57.33,5.74,65.23,30.24-5.12,0-10,.13-14.83-.12-1,0-2.1-1.4-2.78-2.41-9.51-14.23-24.38-20.19-41.16-16.39-16.21,3.67-27.63,16.12-30.27,32.7-1.57,9.94-.87,19.6,3.08,28.89,7.12,16.74,24.91,26,43.43,22.81C1100.9,324.16,1112.87,310.93,1113.93,292.24Z"/><path class="cls-1" d="M726.37,285.2c-.07,32.11-23.25,55.42-55,55.29-31.15-.13-54.1-23.81-54-55.77s23.22-55.35,55-55.2C703.71,229.66,726.44,253.1,726.37,285.2Zm-54.54-43.72c-22.23,0-37.36,14.62-40.17,38.76-3.69,31.85,22.76,55.24,52.53,46.42,16-4.75,26.21-17.85,27.8-37.52C714.2,261.84,697.81,241.63,671.83,241.48Z"/><path class="cls-1" d="M974.37,285.25c-.08,32.09-23.28,55.38-55,55.24-31.14-.15-54.07-23.85-54-55.81s23.26-55.32,55.06-55.16C951.74,229.68,974.46,253.13,974.37,285.25Zm-54.54-43.77c-22.23,0-37.36,14.62-40.17,38.76-3.69,31.85,22.76,55.24,52.53,46.42,16-4.75,26.21-17.85,27.8-37.52C962.2,261.84,945.81,241.63,919.83,241.48Z"/><path class="cls-1" d="M532.9,231.41c14.9,0,29.46-1.06,43.81.27,16.93,1.57,27.06,12.32,28.48,27.17,1.58,16.5-6.38,28.37-22.89,34.17-.77.27-1.52.58-2.77,1.06l27.12,45.37c-5.58,0-10.34.25-15-.16-1.32-.12-2.84-2-3.67-3.35-7.21-12.17-14.39-24.36-21.33-36.68-1.85-3.27-3.86-4.71-7.79-4.63-12.38.22-12.39,0-12.39,12.21v32.27H532.9Zm13.91,11.42v40.59c8.82,0,17.33.65,25.71-.15,11.72-1.13,17.93-8.43,18.28-19.82s-4.77-19.06-15.44-20.38C566.08,241.92,556.54,242.83,546.81,242.83Z"/><path class="cls-1" d="M1393.44,339.12l-1.79.31c-10.62,2.08-17.43-1.53-22-11.92-4.47-10.14-11-19.34-16.53-29-1.46-2.59-3.09-3.8-6.23-3.82-13.46-.08-13.45-.19-13.46,13.12q0,15-.08,30a7,7,0,0,1-.33,1.33h-13.26v-109c15.93.62,31.79.13,47.33,2.15,15.05,2,24.34,13.55,25.16,27.54,1,16.12-6.72,27.62-21.94,32.87-1.09.37-2.16.81-3.76,1.42Zm-59.8-55.52c8.33,0,16.12.07,23.9,0a25.21,25.21,0,0,0,5.88-1c8.57-2.23,13.6-8.5,14.29-17.63.76-10.24-2.73-17.47-10.61-20.51-10.88-4.19-22.16-1.6-33.46-2.32Z"/><path class="cls-1" d="M1306.37,339.34h-14.63c-2.42-6.69-5-13.47-7.3-20.35-.94-2.8-2.34-3.86-5.36-3.82q-20,.24-40,0c-3.1,0-4.42,1.12-5.33,3.91-1.84,5.69-4.15,11.23-6,16.93-.86,2.66-2.18,3.72-5,3.52-3.43-.24-6.89-.06-11-.06,2-5.6,3.84-10.57,5.65-15.55,10.68-29.39,21.43-58.75,31.95-88.2,1.25-3.49,3-4.43,6.45-4.39,11.57.11,11.56,0,15.46,10.77l33.24,92C1305.05,335.61,1305.6,337.16,1306.37,339.34ZM1259.68,250l-1.15-.09-19.11,53.5h39.38Z"/><path class="cls-1" d="M0,0H8V364H0Z"/><path class="cls-1" d="M243.79,0h7.86V364h-7.86Z"/><path class="cls-1" d="M367.77,0h7.87V364h-7.87Z"/><path class="cls-1" d="M130.41,364.09h-7.76V.13h7.76Z"/><path class="cls-1" d="M459.94,339.26h-13V230.66c9.05,0,18.14-.14,27.23.05,6.47.13,13.05.06,19.37,1.21C510.37,235,520.27,248,519.17,264.7c-1.07,16.22-12.8,27.51-30.31,28.69-8,.54-16,.46-24,.35-3.48,0-4.59,1.11-4.55,4.6.15,13.14,0,26.29,0,39.44A9.77,9.77,0,0,1,459.94,339.26Zm.5-96.57c0,12.48-.07,24.6.12,36.71,0,1.05,1.77,3,2.72,3,8.47,0,17,.24,25.38-.74,10.79-1.26,16.16-8.21,16.16-19.2S499.57,244,489,242.89C479.8,241.92,470.44,242.69,460.44,242.69Z"/><path class="cls-1" d="M1157.42,242.24v36.27H1197v11.78h-39.23v37.6h10c9.5,0,19,.28,28.5-.11,5-.21,6.58,1.53,5.9,6.21a36.7,36.7,0,0,0,0,5.17h-58.17V230.84h57.36c.25.36.58.61.61.9,1,10.17,1,10.17-9.1,10.17-9.84,0-19.67,0-29.5,0C1161.46,241.93,1159.68,242.11,1157.42,242.24Z"/></svg>